<svg width="383" height="67" viewBox="0 0 383 67" fill="none" xmlns="http://www.w3.org/2000/svg">
<path d="M0.112375 0.815998C1.32838 0.879997 2.89638 0.943996 4.81638 1.008C6.80038 1.07199 8.62438 1.10399 10.2884 1.10399C11.9524 1.10399 13.8404 1.10399 15.9524 1.10399C18.1284 1.04 20.3044 1.008 22.4804 1.008C24.7204 0.943996 26.6724 0.911997 28.3364 0.911997C33.7124 0.911997 38.1604 1.392 41.6804 2.352C45.2004 3.312 47.8244 4.848 49.5524 6.96C51.2804 9.072 52.1444 11.888 52.1444 15.408C52.1444 19.312 50.8644 22.672 48.3044 25.488C45.7444 28.24 42.1604 29.936 37.5524 30.576C41.5204 30.832 44.8804 31.6 47.6324 32.88C50.4484 34.096 52.5924 35.888 54.0644 38.256C55.5364 40.624 56.2724 43.632 56.2724 47.28C56.2724 50.864 55.3764 54.064 53.5844 56.88C51.7924 59.696 48.9444 61.936 45.0404 63.6C41.1364 65.2 35.9204 66 29.3924 66C27.0884 66 24.5924 66 21.9044 66C19.2804 66 16.6564 66 14.0324 66C11.4084 66.064 8.88038 66.096 6.44838 66.096C4.08038 66.16 1.93638 66.224 0.0163753 66.288C0.0163753 65.136 0.0483752 64.048 0.112375 63.024C0.240375 62 0.432375 61.136 0.688375 60.432C2.41638 60.304 3.72838 59.984 4.62438 59.472C5.58438 58.896 6.25638 57.904 6.64038 56.496C7.02438 55.088 7.21638 53.008 7.21638 50.256V16.176C7.21638 13.68 7.02438 11.792 6.64038 10.512C6.32038 9.168 5.68038 8.24 4.72038 7.72799C3.76038 7.216 2.41638 6.864 0.688375 6.672C0.432375 5.968 0.272375 5.04 0.208375 3.888C0.144375 2.736 0.112375 1.712 0.112375 0.815998ZM21.5204 4.65599V50.736C21.5204 53.488 21.7764 55.568 22.2884 56.976C22.8644 58.32 23.7284 59.216 24.8804 59.664C26.0964 60.112 27.5684 60.336 29.2964 60.336C32.7524 60.336 35.4404 59.28 37.3604 57.168C39.3444 55.056 40.3364 52.144 40.3364 48.432C40.3364 45.808 39.8884 43.632 38.9924 41.904C38.1604 40.176 36.9764 38.864 35.4404 37.968C33.9044 37.008 32.1444 36.336 30.1604 35.952C28.1764 35.504 26.0644 35.28 23.8244 35.28H19.0244V29.52H24.7844C27.8564 29.52 30.3204 29.04 32.1764 28.08C34.0324 27.12 35.3764 25.776 36.2084 24.048C37.0404 22.32 37.4564 20.336 37.4564 18.096C37.4564 15.408 36.8804 13.232 35.7284 11.568C34.5764 9.904 33.1044 8.688 31.3124 7.92C29.5844 7.152 27.7284 6.768 25.7444 6.768C24.7204 6.768 23.7924 6.864 22.9604 7.056C22.1284 7.248 21.2004 7.536 20.1764 7.92L21.5204 4.65599ZM93.1424 66.288C93.1424 65.2 93.1744 64.112 93.2384 63.024C93.3024 61.872 93.4624 61.008 93.7184 60.432C95.1264 60.304 96.2144 60.016 96.9824 59.568C97.8144 59.056 98.3904 58.096 98.7104 56.688C99.0304 55.216 99.1904 53.072 99.1904 50.256V4.944L99.8624 7.44C98.6464 7.12 97.4624 6.896 96.3104 6.768C95.1584 6.576 94.0704 6.48 93.0464 6.48C89.0784 6.48 86.1984 7.568 84.4064 9.744C82.6144 11.92 81.7184 14.736 81.7184 18.192C81.7184 21.264 82.3264 23.888 83.5424 26.064C84.8224 28.176 86.5184 29.808 88.6304 30.96C90.7424 32.048 93.0784 32.592 95.6384 32.592C96.2144 32.592 96.7584 32.56 97.2704 32.496C97.8464 32.432 98.4864 32.336 99.1904 32.208V36.72H91.1264C86.0704 36.528 81.7184 35.696 78.0704 34.224C74.4864 32.752 71.7344 30.704 69.8144 28.08C67.8944 25.392 66.9344 22.224 66.9344 18.576C66.9344 15.44 67.7344 12.528 69.3344 9.84C70.9344 7.152 73.6544 4.976 77.4944 3.31199C81.3344 1.584 86.5504 0.719999 93.1424 0.719999C95.1904 0.719999 97.4944 0.783998 100.054 0.911997C102.614 1.04 105.238 1.10399 107.926 1.10399C109.142 1.10399 110.55 1.10399 112.15 1.10399C113.75 1.04 115.318 0.975996 116.854 0.911997C118.39 0.847998 119.638 0.815998 120.598 0.815998C120.598 1.52 120.566 2.48 120.502 3.696C120.438 4.848 120.278 5.808 120.022 6.576C118.294 6.704 116.95 7.056 115.99 7.632C115.03 8.144 114.358 9.072 113.974 10.416C113.654 11.696 113.494 13.584 113.494 16.08V50.832C113.494 53.328 113.686 55.28 114.07 56.688C114.454 58.032 115.094 58.96 115.99 59.472C116.95 59.984 118.294 60.304 120.022 60.432C120.214 61.2 120.342 62.064 120.406 63.024C120.534 63.984 120.598 65.072 120.598 66.288C118.806 66.16 116.694 66.064 114.262 66C111.83 66 109.558 66 107.446 66C106.23 66 104.726 66 102.934 66C101.206 66.064 99.4464 66.096 97.6544 66.096C95.9264 66.16 94.4224 66.224 93.1424 66.288ZM79.1264 66.864C77.2704 66.608 75.3504 66.416 73.3664 66.288C71.4464 66.16 69.5264 66.064 67.6064 66C65.6864 66 63.8304 66 62.0384 66C61.8464 65.424 61.6864 64.784 61.5584 64.08C61.4304 63.312 61.3344 62.608 61.2704 61.968C61.2704 61.264 61.2704 60.752 61.2704 60.432C63.5104 60.176 65.2064 59.536 66.3584 58.512C67.5744 57.424 68.4704 56.144 69.0464 54.672C69.6224 53.136 70.1344 51.536 70.5824 49.872C71.0944 48.144 71.6704 46.448 72.3104 44.784C72.9504 43.056 73.9424 41.488 75.2864 40.08C76.6944 38.672 78.6464 37.552 81.1424 36.72C83.7024 35.888 87.0624 35.472 91.2224 35.472H99.1904V38.352C95.9904 38.352 93.4304 38.832 91.5104 39.792C89.6544 40.688 88.2144 41.904 87.1904 43.44C86.2304 44.912 85.5264 46.608 85.0784 48.528C84.6304 50.448 84.2144 52.4 83.8304 54.384C83.4464 56.88 82.9344 59.216 82.2944 61.392C81.7184 63.568 80.6624 65.392 79.1264 66.864ZM150.047 66.864C145.759 66.864 141.887 66.384 138.431 65.424C134.975 64.464 131.903 63.056 129.215 61.2C129.727 58.704 130.047 56.272 130.175 53.904C130.303 51.472 130.303 49.104 130.175 46.8C131.327 46.352 132.671 46.064 134.207 45.936C135.743 45.744 137.247 45.68 138.719 45.744C139.167 50.928 140.319 54.704 142.175 57.072C144.031 59.44 146.879 60.624 150.719 60.624C154.495 60.624 157.311 59.6 159.167 57.552C161.087 55.44 162.047 52.624 162.047 49.104C162.047 44.368 160.447 40.944 157.247 38.832C154.111 36.656 149.567 35.568 143.615 35.568C143.295 34.544 143.167 33.424 143.231 32.208C143.359 30.992 143.615 29.936 143.999 29.04C147.519 29.04 150.399 28.56 152.639 27.6C154.943 26.576 156.639 25.136 157.727 23.28C158.879 21.36 159.455 19.152 159.455 16.656C159.455 13.392 158.623 10.896 156.959 9.168C155.359 7.376 153.023 6.48 149.951 6.48C146.879 6.48 144.447 7.472 142.655 9.456C140.927 11.376 139.711 14.608 139.007 19.152C137.599 19.28 136.191 19.248 134.783 19.056C133.375 18.8 132.095 18.416 130.943 17.904C131.263 15.728 131.423 13.552 131.423 11.376C131.487 9.2 131.359 6.96 131.039 4.65599C134.239 3.12 137.535 2 140.927 1.296C144.383 0.591995 147.935 0.239994 151.583 0.239994C159.135 0.239994 164.831 1.584 168.671 4.272C172.575 6.96 174.527 10.672 174.527 15.408C174.527 18.608 173.631 21.392 171.839 23.76C170.047 26.064 167.519 27.856 164.255 29.136C161.055 30.352 157.247 30.96 152.831 30.96V30.288C157.759 30.288 162.015 30.928 165.599 32.208C169.247 33.424 172.063 35.28 174.047 37.776C176.031 40.272 177.023 43.504 177.023 47.472C177.023 53.552 174.623 58.32 169.823 61.776C165.023 65.168 158.431 66.864 150.047 66.864ZM215.545 0.527996L237.529 49.968C238.873 52.784 239.929 54.928 240.697 56.4C241.529 57.872 242.297 58.864 243.001 59.376C243.769 59.888 244.633 60.24 245.593 60.432C245.849 61.264 246.009 62.16 246.073 63.12C246.201 64.08 246.265 65.136 246.265 66.288C245.241 66.16 243.897 66.064 242.233 66C240.569 66 238.873 66 237.145 66C235.481 66 234.137 66 233.113 66C232.345 66 231.321 66 230.041 66C228.761 66 227.417 66 226.009 66C224.601 66.064 223.257 66.096 221.977 66.096C220.761 66.16 219.801 66.224 219.097 66.288C219.097 65.008 219.161 63.92 219.289 63.024C219.417 62.064 219.609 61.2 219.865 60.432C222.233 59.984 223.641 59.28 224.089 58.32C224.537 57.296 224.185 55.536 223.033 53.04L213.049 29.808C211.705 26.864 210.617 24.144 209.785 21.648C208.953 19.152 208.185 16.56 207.481 13.872H209.593C208.825 16.624 208.025 19.312 207.193 21.936C206.361 24.496 205.401 27.12 204.313 29.808L195.865 51.6C194.905 54.16 194.681 56.208 195.193 57.744C195.705 59.28 197.113 60.176 199.417 60.432C199.673 61.2 199.833 62.096 199.897 63.12C200.025 64.08 200.089 65.136 200.089 66.288C199.385 66.224 198.425 66.16 197.209 66.096C196.057 66.096 194.809 66.064 193.465 66C192.185 66 191.001 66 189.913 66C188.313 66 186.713 66 185.113 66C183.513 66.064 182.233 66.16 181.273 66.288C181.273 65.2 181.337 64.176 181.465 63.216C181.593 62.256 181.817 61.328 182.137 60.432C183.225 60.24 184.153 59.856 184.921 59.28C185.689 58.64 186.425 57.616 187.129 56.208C187.897 54.8 188.793 52.88 189.817 50.448L209.881 1.008C210.905 0.751995 211.801 0.623995 212.569 0.623995C213.401 0.559996 214.393 0.527996 215.545 0.527996ZM220.633 42.288L222.073 47.568C217.785 47.568 213.273 47.632 208.537 47.76C203.865 47.888 199.353 48.112 195.001 48.432L196.537 42.288H220.633ZM290.035 66.288C290.035 65.264 290.099 64.208 290.227 63.12C290.355 62.032 290.515 61.136 290.707 60.432C292.435 60.304 293.747 59.984 294.643 59.472C295.603 58.96 296.243 58.032 296.563 56.688C296.947 55.28 297.139 53.328 297.139 50.832V16.176C297.139 13.68 296.947 11.792 296.563 10.512C296.243 9.168 295.603 8.24 294.643 7.72799C293.747 7.216 292.435 6.864 290.707 6.672C290.451 5.968 290.259 5.072 290.131 3.984C290.067 2.896 290.035 1.84 290.035 0.815998C291.187 0.879997 292.595 0.943996 294.259 1.008C295.987 1.008 297.779 1.04 299.635 1.10399C301.491 1.10399 303.123 1.10399 304.531 1.10399C306.003 1.10399 307.571 1.10399 309.235 1.10399C310.963 1.04 312.627 1.008 314.227 1.008C315.827 0.943996 317.267 0.879997 318.547 0.815998C318.547 1.904 318.515 2.928 318.451 3.888C318.387 4.848 318.195 5.776 317.875 6.672C316.211 6.8 314.899 7.15199 313.939 7.72799C312.979 8.24 312.307 9.168 311.923 10.512C311.603 11.792 311.443 13.68 311.443 16.176V50.832C311.443 53.328 311.635 55.28 312.019 56.688C312.403 58.032 313.043 58.96 313.939 59.472C314.899 59.984 316.243 60.304 317.971 60.432C318.163 61.072 318.291 61.936 318.355 63.024C318.483 64.112 318.547 65.2 318.547 66.288C316.883 66.16 314.867 66.064 312.499 66C310.131 66 307.635 66 305.011 66C302.387 66 299.731 66 297.043 66C294.355 66.064 292.019 66.16 290.035 66.288ZM251.923 66.288C251.923 65.264 251.987 64.208 252.115 63.12C252.307 62.032 252.499 61.136 252.691 60.432C254.419 60.304 255.731 59.984 256.627 59.472C257.587 58.96 258.227 58.032 258.547 56.688C258.867 55.28 259.027 53.328 259.027 50.832V16.176C259.027 13.68 258.867 11.792 258.547 10.512C258.227 9.168 257.587 8.24 256.627 7.72799C255.731 7.216 254.419 6.864 252.691 6.672C252.435 5.968 252.243 5.072 252.115 3.984C251.987 2.896 251.923 1.84 251.923 0.815998C253.075 0.879997 254.483 0.943996 256.147 1.008C257.875 1.008 259.667 1.04 261.523 1.10399C263.379 1.10399 265.043 1.10399 266.515 1.10399C267.987 1.10399 269.555 1.10399 271.219 1.10399C272.883 1.04 274.515 1.008 276.115 1.008C277.779 0.943996 279.251 0.879997 280.531 0.815998C280.531 1.904 280.499 2.928 280.435 3.888C280.371 4.848 280.179 5.776 279.859 6.672C278.131 6.8 276.787 7.15199 275.827 7.72799C274.931 8.24 274.291 9.168 273.907 10.512C273.587 11.792 273.427 13.68 273.427 16.176V50.832C273.427 53.328 273.587 55.28 273.907 56.688C274.291 58.032 274.963 58.96 275.923 59.472C276.883 59.984 278.195 60.304 279.859 60.432C280.115 61.072 280.275 61.936 280.339 63.024C280.467 64.112 280.531 65.2 280.531 66.288C278.867 66.16 276.851 66.064 274.483 66C272.115 66 269.619 66 266.995 66C264.371 66 261.683 66 258.931 66C256.243 66.064 253.907 66.16 251.923 66.288ZM272.947 36.336V29.616H297.619V35.568C295.955 35.568 294.035 35.568 291.859 35.568C289.683 35.568 287.443 35.6 285.139 35.664C282.835 35.728 280.627 35.824 278.515 35.952C276.403 36.016 274.547 36.144 272.947 36.336ZM326.735 66.288C326.735 65.136 326.767 64.048 326.831 63.024C326.959 62 327.151 61.136 327.407 60.432C329.135 60.304 330.447 59.984 331.343 59.472C332.303 58.896 332.975 57.904 333.359 56.496C333.743 55.088 333.935 53.008 333.935 50.256V16.176C333.935 13.68 333.743 11.792 333.359 10.512C333.039 9.168 332.431 8.24 331.535 7.72799C330.639 7.216 329.295 6.864 327.503 6.672C327.247 5.968 327.055 5.136 326.927 4.17599C326.863 3.152 326.831 2.032 326.831 0.815998C329.007 0.879997 331.567 0.943996 334.511 1.008C337.455 1.07199 340.335 1.10399 343.151 1.10399C345.007 1.10399 346.895 1.10399 348.815 1.10399C350.735 1.04 352.559 1.008 354.287 1.008C356.015 0.943996 357.423 0.879997 358.511 0.815998C358.511 1.84 358.447 2.896 358.319 3.984C358.255 5.008 358.095 5.904 357.839 6.672C355.471 6.8 353.583 7.216 352.175 7.92C350.767 8.624 349.743 9.744 349.103 11.28C348.527 12.816 348.239 14.96 348.239 17.712V50.736C348.239 53.36 348.495 55.376 349.007 56.784C349.583 58.192 350.415 59.152 351.503 59.664C352.591 60.112 353.903 60.336 355.439 60.336C359.279 60.336 362.127 59.28 363.983 57.168C365.839 55.056 366.767 52.208 366.767 48.624C366.767 46 366.383 43.824 365.615 42.096C364.847 40.304 363.823 38.896 362.543 37.872C361.263 36.848 359.791 36.112 358.127 35.664C356.527 35.216 354.863 34.992 353.135 34.992C352.367 34.992 351.439 35.024 350.351 35.088C349.327 35.152 348.271 35.248 347.183 35.376V29.328C348.463 29.136 349.711 29.008 350.927 28.944C352.207 28.816 353.711 28.752 355.439 28.752C361.455 28.752 366.479 29.392 370.511 30.672C374.607 31.888 377.711 33.84 379.823 36.528C381.935 39.216 382.991 42.768 382.991 47.184C382.991 50.832 382.095 54.064 380.303 56.88C378.511 59.696 375.663 61.936 371.759 63.6C367.855 65.2 362.703 66 356.303 66C352.591 66 348.943 66 345.359 66C341.775 66.064 338.415 66.096 335.279 66.096C332.143 66.16 329.295 66.224 326.735 66.288Z" fill="#C5A580"/>
</svg>
